<svg xmlns="http://www.w3.org/2000/svg" fill="none" viewBox="0 0 128 128">
    <path d="M50.4 78.5a75.1 75.1 0 0 0-28.5 6.9l24.2-65.7c.7-2 1.9-3.2 3.4-3.2h29c1.5 0 2.7 1.2 3.4 3.2l24.2 65.7c-11.1-2.9-23.3-4.5-37.7-6.9-9.2-1.5-12.8-1.5-17.6 0Z"/>
    <path d="M110.2 92.8c-3.3-10.8-16.8-13.1-29.7-13.1-2 0-3.9 0-5.8.1l-14.2 19.9h-.4l-14.2-19.9c-1.9-.1-3.8-.1-5.8-.1-12.9 0-26.4 2.3-29.7 13.1-2.6 8.7-1.5 18.4 3.4 22.4a8.4 8.4 0 0 0 6.3 1.9c5-.6 13.3-2 23.7-3.1 6.2-.7 12.7-1.1 19.2-1.1s13 .4 19.2 1.1c10.4 1.1 18.7 2.5 23.7 3.1a8.4 8.4 0 0 0 6.3-1.9c4.9-4 6-13.7 3.4-22.4Z"/>
</svg>
